/vscmnt/brussel_pixiu_data/_data_brussel/112/vsc11236/PredSimResults/SUBJ06mtu3D/worker6.mot
version=1
nRows=8
nColumns=50
inDegrees=yes
endheader
                time	         pelvis_tilt	         pelvis_list	     pelvis_rotation	           pelvis_tx	           pelvis_ty	           pelvis_tz	       hip_flexion_r	     hip_adduction_r	      hip_rotation_r	        knee_angle_r	       ankle_angle_r	         mtp_angle_r	       hip_flexion_l	     hip_adduction_l	      hip_rotation_l	        knee_angle_l	       ankle_angle_l	         mtp_angle_l	    lumbar_extension	      lumbar_bending	     lumbar_rotation	 ercspn_r/activation	 intobl_r/activation	 extobl_r/activation	    abd_r/activation	    add_r/activation	hamstrings_r/activation	bifemsh_r/activation	glut_max_r/activation	iliopsoas_r/activation	rect_fem_r/activation	  vasti_r/activation	gastroc_r/activation	 soleus_r/activation	tib_ant_r/activation	 ercspn_l/activation	 intobl_l/activation	 extobl_l/activation	    abd_l/activation	    add_l/activation	hamstrings_l/activation	bifemsh_l/activation	glut_max_l/activation	iliopsoas_l/activation	rect_fem_l/activation	  vasti_l/activation	gastroc_l/activation	 soleus_l/activation	tib_ant_l/activation	
          1.88916761	         -6.80582298	          1.70880451	         -4.85970302	          2.11586773	          0.92729685	          0.01131006	        -11.21978797	         -0.90666054	          0.65707139	         -8.56503997	          9.71735017	         30.42541521	         31.67567393	          0.27885233	         -2.30041133	         -5.32038049	          3.94614168	          0.22701233	         -5.01015924	         -0.40248840	         -0.42264575	          0.10171418	          0.01000058	          0.01000087	          0.05556190	          0.03041564	          0.01292559	          0.13570414	          0.04592253	          0.46495361	          0.01211362	          0.01000320	          0.38792958	          0.32011990	          0.01523778	          0.13087977	          0.11954954	          0.01000118	          0.01000016	          0.20508207	          0.16000479	          0.21260966	          0.06354872	          0.16469876	          0.01001142	          0.01000051	          0.03560502	          0.01464039	          0.40897514	
          1.90176206	         -6.87459155	          1.62370324	         -4.86075951	          2.13339547	          0.92526780	          0.01055803	        -11.49909975	         -0.90938103	          0.21495632	         -9.88548416	          8.90670850	         32.41726337	         31.69436268	          0.35284125	         -2.14058407	         -7.12637147	          3.60247020	          0.19241296	         -4.64003800	         -0.66007798	         -0.03360493	          0.09774052	          0.01000047	          0.01000127	          0.04592249	          0.03100063	          0.01859691	          0.11216122	          0.03795557	          0.46279306	          0.01002187	          0.01634754	          0.35745799	          0.29894034	          0.01259420	          0.10817712	          0.11521316	          0.01000104	          0.04173558	          0.16950316	          0.14565072	          0.17572594	          0.09799123	          0.13612514	          0.01000123	          0.01000040	          0.02942803	          0.01210091	          0.47246372	
          1.91435651	         -6.93052832	          1.55354157	         -4.82230544	          2.15107096	          0.92365292	          0.00968709	        -11.53116210	         -0.93714908	         -0.24369923	        -11.66198437	          7.91900490	         34.49055368	         31.54997097	          0.43635037	         -2.02425603	         -8.64298360	          3.07780384	          0.18206873	         -4.27422219	         -0.93768033	          0.34075094	          0.11427267	          0.01000049	          0.01000094	          0.03795541	          0.02566343	          0.04170105	          0.09270276	          0.03137074	          0.45418489	          0.01034436	          0.01771692	          0.31099440	          0.25615924	          0.01040928	          0.12497076	          0.09522513	          0.01000104	          0.10126445	          0.19391025	          0.12887601	          0.14524062	          0.14130607	          0.11250878	          0.01000083	          0.01000023	          0.02432267	          0.01000170	          0.51914155	
          1.92695096	         -6.97255154	          1.49147710	         -4.74929622	          2.16866764	          0.92260805	          0.00871572	        -11.24305538	         -0.98563854	         -0.72597385	        -13.99060087	          6.72019898	         36.57538173	         31.34277107	          0.53729125	         -1.94379400	        -10.05853663	          2.55896284	          0.14894832	         -3.93766415	         -1.22895364	          0.69733976	          0.14618042	          0.01000056	          0.01000086	          0.03137053	          0.07613475	          0.04087069	          0.07662027	          0.02592827	          0.43274764	          0.01003632	          0.01464344	          0.25704004	          0.21171825	          0.01000015	          0.13562723	          0.07870468	          0.01000095	          0.14793296	          0.24810133	          0.11260630	          0.12004354	          0.18433652	          0.09298962	          0.01000150	          0.01266530	          0.02010316	          0.01003340	          0.54468651	
          1.93954542	         -6.99897932	          1.44300466	         -4.64670346	          2.18603333	          0.92221477	          0.00767047	        -10.58245026	         -1.06579647	         -1.24361880	        -16.93812812	          5.29521984	         38.51187201	         31.11455929	          0.66048574	         -1.88019139	        -11.48883243	          2.31637810	          0.12040373	         -3.64183307	         -1.54039345	          1.03294694	          0.17193244	          0.01000069	          0.01000089	          0.02592806	          0.15936190	          0.04808063	          0.06332836	          0.02143000	          0.38902039	          0.01000380	          0.01210304	          0.21244610	          0.17498722	          0.01000027	          0.13155307	          0.06505035	          0.01000086	          0.17769648	          0.25198376	          0.10192340	          0.09921805	          0.19780109	          0.07685685	          0.01000124	          0.06428709	          0.01661570	          0.01000303	          0.56107221	
          1.95213987	         -7.01154487	          1.41019482	         -4.51790219	          2.20305158	          0.92255402	          0.00658121	         -9.53564359	         -1.18833820	         -1.81027056	        -20.48850037	          3.64917983	         39.97035790	         30.79974401	          0.81063334	         -1.80173226	        -12.77826696	          2.26055100	          0.09520833	         -3.39305566	         -1.87359654	          1.34520851	          0.17818417	          0.01000101	          0.01000098	          0.02142980	          0.19078584	          0.03979655	          0.05234437	          0.01771212	          0.33010947	          0.01000174	          0.01000338	          0.17558875	          0.14462864	          0.01000043	          0.12366262	          0.05376493	          0.01000101	          0.18944096	          0.21086990	          0.09163434	          0.08200578	          0.18689500	          0.06352296	          0.01000106	          0.11553449	          0.01373336	          0.01000409	          0.55516301	
          1.96473432	         -7.01283760	          1.38723288	         -4.36688824	          2.21966145	          0.92364116	          0.00547972	         -8.13431152	         -1.36118470	         -2.43380732	        -24.56305602	          1.89010396	         40.42951527	         30.34078240	          0.98335662	         -1.68627733	        -13.81937606	          2.40888024	          0.07506902	         -3.19383371	         -2.22153756	          1.63266916	          0.18638095	          0.01000095	          0.01000121	          0.01771195	          0.17615607	          0.03289894	          0.05429003	          0.01463926	          0.27283913	          0.01000136	          0.01000014	          0.14512580	          0.11953698	          0.01000050	          0.11582034	          0.04443749	          0.01000098	          0.19254605	          0.17428696	          0.08359163	          0.06777981	          0.17027656	          0.05250237	          0.01000099	          0.14741843	          0.01135123	          0.01000205	          0.53642641	
          1.97732877	         -7.00519234	          1.36595142	         -4.19451497	          2.23586355	          0.92542209	          0.00438592	         -6.44339476	         -1.58829525	         -3.10255621	        -29.00487664	         -0.00451837	         39.71031606	         29.71047187	          1.16869871	         -1.53325632	        -14.55994949	          2.75100751	          0.06579045	         -3.04055901	         -2.57303388	          1.89200077	          0.19404613	          0.01000074	          0.01000119	          0.01463911	          0.17653092	          0.02719496	          0.07461401	          0.01209951	          0.22550437	          0.01000140	          0.01000011	          0.11994790	          0.09879849	          0.04459292	          0.09573060	          0.03672831	          0.01000095	          0.19344645	          0.14405029	          0.07756836	          0.05602186	          0.14995253	          0.04339375	          0.01000106	          0.16859256	          0.01000115	          0.01000155	          0.50028144	
